# WaveFront *.obj file (generated by Autodesk ATF)

mtllib Bezel.mtl

g Body1

v 36.500000 -27.500000 1.000000
v 36.500000 -26.500000 2.000000
v -36.500000 -26.500000 2.000000
v -36.500000 -27.500000 1.000000
v 36.945042 -27.449856 1.000000
v 37.367767 -27.301938 1.000000
v 37.746980 -27.063663 1.000000
v 38.063663 -26.746980 1.000000
v 38.301938 -26.367767 1.000000
v 38.449856 -25.945042 1.000000
v 38.500000 -25.500000 1.000000
v 37.500000 -25.500000 2.000000
v 37.465926 -25.758819 2.000000
v 37.366025 -26.000000 2.000000
v 37.207107 -26.207107 2.000000
v 37.000000 -26.366025 2.000000
v 36.758819 -26.465926 2.000000
v 38.500000 25.500000 1.000000
v 37.500000 25.500000 2.000000
v 38.449856 25.945042 1.000000
v 38.301938 26.367767 1.000000
v 38.063663 26.746980 1.000000
v 37.746980 27.063663 1.000000
v 37.367767 27.301938 1.000000
v 36.945042 27.449856 1.000000
v 36.500000 27.500000 1.000000
v 36.500000 26.500000 2.000000
v 36.758819 26.465926 2.000000
v 37.000000 26.366025 2.000000
v 37.207107 26.207107 2.000000
v 37.366025 26.000000 2.000000
v 37.465926 25.758819 2.000000
v -36.500000 27.500000 1.000000
v -36.500000 26.500000 2.000000
v -36.945042 27.449856 1.000000
v -37.367767 27.301938 1.000000
v -37.746980 27.063663 1.000000
v -38.063663 26.746980 1.000000
v -38.301938 26.367767 1.000000
v -38.449856 25.945042 1.000000
v -38.500000 25.500000 1.000000
v -37.500000 25.500000 2.000000
v -37.465926 25.758819 2.000000
v -37.366025 26.000000 2.000000
v -37.207107 26.207107 2.000000
v -37.000000 26.366025 2.000000
v -36.758819 26.465926 2.000000
v -38.500000 -25.500000 1.000000
v -37.500000 -25.500000 2.000000
v -38.449856 -25.945042 1.000000
v -38.301938 -26.367767 1.000000
v -38.063663 -26.746980 1.000000
v -37.746980 -27.063663 1.000000
v -37.367767 -27.301938 1.000000
v -36.945042 -27.449856 1.000000
v -36.758819 -26.465926 2.000000
v -37.000000 -26.366025 2.000000
v -37.207107 -26.207107 2.000000
v -37.366025 -26.000000 2.000000
v -37.465926 -25.758819 2.000000
v 38.500000 25.500000 0.000000
v 38.449856 25.945042 0.000000
v 38.301938 26.367767 0.000000
v 38.063663 26.746980 0.000000
v 37.746980 27.063663 0.000000
v 37.367767 27.301938 0.000000
v 36.945042 27.449856 0.000000
v 36.500000 27.500000 0.000000
v 38.500000 -25.500000 0.000000
v 36.500000 -27.500000 0.000000
v 36.945042 -27.449856 0.000000
v 37.367767 -27.301938 0.000000
v 37.746980 -27.063663 0.000000
v 38.063663 -26.746980 0.000000
v 38.301938 -26.367767 0.000000
v 38.449856 -25.945042 0.000000
v -36.500000 -27.500000 0.000000
v -36.500000 25.500000 2.000000
v 36.500000 25.500000 2.000000
v 36.500000 -25.500000 2.000000
v -36.500000 -25.500000 2.000000
v -36.500000 27.500000 0.000000
v -36.945042 27.449856 0.000000
v -37.367767 27.301938 0.000000
v -37.746980 27.063663 0.000000
v -38.063663 26.746980 0.000000
v -38.301938 26.367767 0.000000
v -38.449856 25.945042 0.000000
v -38.500000 25.500000 0.000000
v -38.500000 -25.500000 0.000000
v -38.449856 -25.945042 0.000000
v -38.301938 -26.367767 0.000000
v -38.063663 -26.746980 0.000000
v -37.746980 -27.063663 0.000000
v -37.367767 -27.301938 0.000000
v -36.945042 -27.449856 0.000000
v -36.500000 -25.500000 0.000000
v -36.500000 25.500000 0.000000
v 36.500000 -25.500000 0.000000
v 36.500000 25.500000 0.000000
vt 5.575000 0.070711 0.000000
vt -1.725000 0.070711 0.000000
vt 5.575000 -0.070711 0.000000
vt -1.725000 -0.070711 0.000000
vt -0.070711 0.117810 0.000000
vt -0.070711 0.084150 0.000000
vt 0.070711 0.117810 0.000000
vt 0.070711 0.078540 0.000000
vt -0.070711 0.050490 0.000000
vt 0.070711 0.039270 0.000000
vt -0.070711 0.016830 0.000000
vt 0.070711 0.000000 0.000000
vt -0.070711 -0.016830 0.000000
vt 0.070711 -0.039270 0.000000
vt -0.070711 -0.050490 0.000000
vt 0.070711 -0.078540 0.000000
vt -0.070711 -0.084150 0.000000
vt 0.070711 -0.117810 0.000000
vt -0.070711 -0.117810 0.000000
vt 0.070711 3.925000 0.000000
vt -0.070711 3.925000 0.000000
vt 0.070711 -1.175000 0.000000
vt -0.070711 -1.175000 0.000000
vt -0.070711 0.117810 0.000000
vt -0.070711 0.084150 0.000000
vt 0.070711 0.117810 0.000000
vt 0.070711 0.078540 0.000000
vt -0.070711 0.050490 0.000000
vt 0.070711 0.039270 0.000000
vt -0.070711 0.016830 0.000000
vt 0.070711 0.000000 0.000000
vt -0.070711 -0.016830 0.000000
vt 0.070711 -0.039270 0.000000
vt -0.070711 -0.050490 0.000000
vt 0.070711 -0.078540 0.000000
vt -0.070711 -0.084150 0.000000
vt 0.070711 -0.117810 0.000000
vt -0.070711 -0.117810 0.000000
vt -5.575000 -0.070711 0.000000
vt 1.725000 -0.070711 0.000000
vt -5.575000 0.070711 0.000000
vt 1.725000 0.070711 0.000000
vt -0.070711 0.117810 0.000000
vt -0.070711 0.084150 0.000000
vt 0.070711 0.117810 0.000000
vt 0.070711 0.078540 0.000000
vt -0.070711 0.050490 0.000000
vt 0.070711 0.039270 0.000000
vt -0.070711 0.016830 0.000000
vt 0.070711 0.000000 0.000000
vt -0.070711 -0.016830 0.000000
vt 0.070711 -0.039270 0.000000
vt -0.070711 -0.050490 0.000000
vt 0.070711 -0.078540 0.000000
vt -0.070711 -0.084150 0.000000
vt 0.070711 -0.117810 0.000000
vt -0.070711 -0.117810 0.000000
vt -0.070711 -3.925000 0.000000
vt 0.070711 -3.925000 0.000000
vt -0.070711 1.175000 0.000000
vt 0.070711 1.175000 0.000000
vt -0.070711 0.117810 0.000000
vt -0.070711 0.084150 0.000000
vt 0.070711 0.117810 0.000000
vt 0.070711 0.078540 0.000000
vt -0.070711 0.050490 0.000000
vt 0.070711 0.039270 0.000000
vt -0.070711 0.016830 0.000000
vt 0.070711 0.000000 0.000000
vt -0.070711 -0.016830 0.000000
vt 0.070711 -0.039270 0.000000
vt -0.070711 -0.050490 0.000000
vt 0.070711 -0.078540 0.000000
vt -0.070711 -0.084150 0.000000
vt 0.070711 -0.117810 0.000000
vt -0.070711 -0.117810 0.000000
vt -0.000000 0.157080 0.000000
vt -0.100000 0.157080 0.000000
vt -0.000000 0.112200 0.000000
vt -0.100000 0.112200 0.000000
vt -0.000000 0.067320 0.000000
vt -0.100000 0.067320 0.000000
vt -0.000000 0.022440 0.000000
vt -0.100000 0.022440 0.000000
vt -0.000000 -0.022440 0.000000
vt -0.100000 -0.022440 0.000000
vt -0.000000 -0.067320 0.000000
vt -0.100000 -0.067320 0.000000
vt -0.000000 -0.112200 0.000000
vt -0.100000 -0.112200 0.000000
vt -0.000000 -0.157080 0.000000
vt -0.100000 -0.157080 0.000000
vt 5.300000 0.100000 0.000000
vt 0.200000 0.100000 0.000000
vt 5.300000 0.000000 0.000000
vt 0.200000 0.000000 0.000000
vt -0.000000 0.157080 0.000000
vt -0.100000 0.157080 0.000000
vt -0.000000 0.112200 0.000000
vt -0.100000 0.112200 0.000000
vt -0.000000 0.067320 0.000000
vt -0.100000 0.067320 0.000000
vt -0.000000 0.022440 0.000000
vt -0.100000 0.022440 0.000000
vt -0.000000 -0.022440 0.000000
vt -0.100000 -0.022440 0.000000
vt -0.000000 -0.067320 0.000000
vt -0.100000 -0.067320 0.000000
vt -0.000000 -0.112200 0.000000
vt -0.100000 -0.112200 0.000000
vt -0.000000 -0.157080 0.000000
vt -0.100000 -0.157080 0.000000
vt 7.500000 0.100000 0.000000
vt 0.200000 0.100000 0.000000
vt 7.500000 0.000000 0.000000
vt 0.200000 0.000000 0.000000
vt 3.650000 2.550000 0.000000
vt -3.650000 2.650000 0.000000
vt -3.650000 2.550000 0.000000
vt -3.675882 2.646593 0.000000
vt -3.700000 2.636603 0.000000
vt 3.650000 -2.550000 0.000000
vt 3.750000 -2.550000 0.000000
vt 3.750000 2.550000 0.000000
vt 3.746593 2.575882 0.000000
vt -3.650000 -2.550000 0.000000
vt 3.650000 -2.650000 0.000000
vt 3.675882 -2.646593 0.000000
vt 3.700000 -2.636603 0.000000
vt -3.750000 2.550000 0.000000
vt -3.750000 -2.550000 0.000000
vt -3.746593 -2.575882 0.000000
vt -3.675882 -2.646593 0.000000
vt -3.650000 -2.650000 0.000000
vt 3.720711 -2.620711 0.000000
vt 3.736603 -2.600000 0.000000
vt 3.746593 -2.575882 0.000000
vt 3.736603 2.600000 0.000000
vt 3.720711 2.620711 0.000000
vt 3.700000 2.636603 0.000000
vt 3.675882 2.646593 0.000000
vt 3.650000 2.650000 0.000000
vt -3.720711 2.620711 0.000000
vt -3.736603 2.600000 0.000000
vt -3.746593 2.575882 0.000000
vt -3.736603 -2.600000 0.000000
vt -3.720711 -2.620711 0.000000
vt -3.700000 -2.636603 0.000000
vt -0.000000 0.157080 0.000000
vt -0.100000 0.157080 0.000000
vt -0.000000 0.112200 0.000000
vt -0.100000 0.112200 0.000000
vt -0.000000 0.067320 0.000000
vt -0.100000 0.067320 0.000000
vt -0.000000 0.022440 0.000000
vt -0.100000 0.022440 0.000000
vt -0.000000 -0.022440 0.000000
vt -0.100000 -0.022440 0.000000
vt -0.000000 -0.067320 0.000000
vt -0.100000 -0.067320 0.000000
vt -0.000000 -0.112200 0.000000
vt -0.100000 -0.112200 0.000000
vt -0.000000 -0.157080 0.000000
vt -0.100000 -0.157080 0.000000
vt 5.300000 0.100000 0.000000
vt 0.200000 0.100000 0.000000
vt 5.300000 0.000000 0.000000
vt 0.200000 0.000000 0.000000
vt -0.000000 0.157080 0.000000
vt -0.100000 0.157080 0.000000
vt -0.000000 0.112200 0.000000
vt -0.100000 0.112200 0.000000
vt -0.000000 0.067320 0.000000
vt -0.100000 0.067320 0.000000
vt -0.000000 0.022440 0.000000
vt -0.100000 0.022440 0.000000
vt -0.000000 -0.022440 0.000000
vt -0.100000 -0.022440 0.000000
vt -0.000000 -0.067320 0.000000
vt -0.100000 -0.067320 0.000000
vt -0.000000 -0.112200 0.000000
vt -0.100000 -0.112200 0.000000
vt -0.000000 -0.157080 0.000000
vt -0.100000 -0.157080 0.000000
vt 7.500000 0.100000 0.000000
vt 0.200000 0.100000 0.000000
vt 7.500000 0.000000 0.000000
vt 0.200000 0.000000 0.000000
vt 0.000000 0.000000 0.000000
vt 5.100000 0.000000 0.000000
vt 0.000000 0.200000 0.000000
vt 5.100000 0.200000 0.000000
vt 0.000000 0.000000 0.000000
vt 7.300000 0.000000 0.000000
vt 0.000000 0.200000 0.000000
vt 7.300000 0.200000 0.000000
vt 0.000000 0.000000 0.000000
vt 5.100000 0.000000 0.000000
vt 0.000000 0.200000 0.000000
vt 5.100000 0.200000 0.000000
vt 0.000000 0.000000 0.000000
vt 7.300000 0.000000 0.000000
vt 0.000000 0.200000 0.000000
vt 7.300000 0.200000 0.000000
vt -3.850000 2.550000 0.000000
vt -3.850000 -2.550000 0.000000
vt -3.650000 -2.550000 0.000000
vt -3.844986 -2.594504 0.000000
vt -3.830194 -2.636777 0.000000
vt -3.806366 -2.674698 0.000000
vt -3.774698 -2.706366 0.000000
vt -3.736777 -2.730194 0.000000
vt -3.694504 -2.744986 0.000000
vt -3.650000 -2.750000 0.000000
vt 3.650000 -2.750000 0.000000
vt 3.650000 -2.550000 0.000000
vt 3.694504 -2.744986 0.000000
vt 3.736777 -2.730194 0.000000
vt 3.774698 -2.706366 0.000000
vt 3.806366 -2.674698 0.000000
vt 3.830194 -2.636777 0.000000
vt 3.844986 -2.594504 0.000000
vt 3.850000 -2.550000 0.000000
vt 3.650000 2.550000 0.000000
vt 3.850000 2.550000 0.000000
vt 3.844986 2.594504 0.000000
vt 3.830194 2.636777 0.000000
vt 3.806366 2.674698 0.000000
vt 3.774698 2.706366 0.000000
vt 3.736777 2.730194 0.000000
vt 3.694504 2.744986 0.000000
vt 3.650000 2.750000 0.000000
vt -3.650000 2.750000 0.000000
vt -3.650000 2.550000 0.000000
vt -3.694504 2.744986 0.000000
vt -3.736777 2.730194 0.000000
vt -3.774698 2.706366 0.000000
vt -3.806366 2.674698 0.000000
vt -3.830194 2.636777 0.000000
vt -3.844986 2.594504 0.000000
vn 0.000000 -0.070711 0.070711
vn 0.000000 -0.070711 0.070711
vn 0.000000 -0.070711 0.070711
vn 0.000000 -0.070711 0.070711
vn 0.015735 -0.068938 0.070711
vn 0.018301 -0.068301 0.070711
vn 0.030680 -0.063708 0.070711
vn 0.035355 -0.061237 0.070711
vn 0.044087 -0.055284 0.070711
vn 0.050000 -0.050000 0.070711
vn 0.055284 -0.044087 0.070711
vn 0.061237 -0.035355 0.070711
vn 0.063708 -0.030680 0.070711
vn 0.068301 -0.018301 0.070711
vn 0.068938 -0.015735 0.070711
vn 0.070711 0.000000 0.070711
vn 0.070711 0.000000 0.070711
vn 0.070711 0.000000 0.070711
vn 0.070711 0.000000 0.070711
vn 0.068938 0.015735 0.070711
vn 0.068301 0.018301 0.070711
vn 0.063708 0.030680 0.070711
vn 0.061237 0.035355 0.070711
vn 0.055284 0.044087 0.070711
vn 0.050000 0.050000 0.070711
vn 0.044087 0.055284 0.070711
vn 0.035355 0.061237 0.070711
vn 0.030680 0.063708 0.070711
vn 0.018301 0.068301 0.070711
vn 0.015735 0.068938 0.070711
vn 0.000000 0.070711 0.070711
vn 0.000000 0.070711 0.070711
vn 0.000000 0.070711 0.070711
vn 0.000000 0.070711 0.070711
vn -0.015735 0.068938 0.070711
vn -0.018301 0.068301 0.070711
vn -0.030680 0.063708 0.070711
vn -0.035355 0.061237 0.070711
vn -0.044087 0.055284 0.070711
vn -0.050000 0.050000 0.070711
vn -0.055284 0.044087 0.070711
vn -0.061237 0.035355 0.070711
vn -0.063708 0.030680 0.070711
vn -0.068301 0.018301 0.070711
vn -0.068938 0.015735 0.070711
vn -0.070711 0.000000 0.070711
vn -0.070711 0.000000 0.070711
vn -0.070711 0.000000 0.070711
vn -0.070711 0.000000 0.070711
vn -0.068938 -0.015735 0.070711
vn -0.068301 -0.018301 0.070711
vn -0.063708 -0.030680 0.070711
vn -0.061237 -0.035355 0.070711
vn -0.055284 -0.044087 0.070711
vn -0.050000 -0.050000 0.070711
vn -0.044087 -0.055284 0.070711
vn -0.035355 -0.061237 0.070711
vn -0.030680 -0.063708 0.070711
vn -0.018301 -0.068301 0.070711
vn -0.015735 -0.068938 0.070711
vn -0.000000 0.100000 -0.000000
vn -0.000000 0.100000 -0.000000
vn 0.022252 0.097493 0.000000
vn 0.022252 0.097493 0.000000
vn 0.043388 0.090097 0.000000
vn 0.043388 0.090097 0.000000
vn 0.062349 0.078183 0.000000
vn 0.062349 0.078183 0.000000
vn 0.078183 0.062349 0.000000
vn 0.078183 0.062349 0.000000
vn 0.090097 0.043388 0.000000
vn 0.090097 0.043388 0.000000
vn 0.097493 0.022252 0.000000
vn 0.097493 0.022252 0.000000
vn 0.100000 0.000000 0.000000
vn 0.100000 0.000000 0.000000
vn 0.100000 0.000000 0.000000
vn 0.100000 0.000000 0.000000
vn 0.097493 -0.022252 0.000000
vn 0.097493 -0.022252 0.000000
vn 0.090097 -0.043388 0.000000
vn 0.090097 -0.043388 0.000000
vn 0.078183 -0.062349 0.000000
vn 0.078183 -0.062349 0.000000
vn 0.062349 -0.078183 0.000000
vn 0.062349 -0.078183 0.000000
vn 0.043388 -0.090097 0.000000
vn 0.043388 -0.090097 0.000000
vn 0.022252 -0.097493 0.000000
vn 0.022252 -0.097493 0.000000
vn 0.000000 -0.100000 0.000000
vn 0.000000 -0.100000 0.000000
vn 0.000000 -0.100000 0.000000
vn 0.000000 -0.100000 0.000000
vn 0.000000 0.000000 0.100000
vn 0.000000 0.000000 0.100000
vn 0.000000 0.000000 0.100000
vn 0.000000 0.000000 0.100000
vn 0.000000 0.000000 0.100000
vn 0.000000 0.000000 0.100000
vn 0.000000 0.000000 0.100000
vn 0.000000 0.000000 0.100000
vn 0.000000 0.000000 0.100000
vn 0.000000 0.000000 0.100000
vn 0.000000 0.000000 0.100000
vn 0.000000 0.000000 0.100000
vn 0.000000 0.000000 0.100000
vn 0.000000 0.000000 0.100000
vn 0.000000 0.000000 0.100000
vn 0.000000 0.000000 0.100000
vn 0.000000 0.000000 0.100000
vn 0.000000 0.000000 0.100000
vn 0.000000 0.000000 0.100000
vn 0.000000 0.000000 0.100000
vn 0.000000 0.000000 0.100000
vn 0.000000 0.000000 0.100000
vn 0.000000 0.000000 0.100000
vn 0.000000 0.000000 0.100000
vn 0.000000 0.000000 0.100000
vn 0.000000 0.000000 0.100000
vn 0.000000 0.000000 0.100000
vn 0.000000 0.000000 0.100000
vn 0.000000 0.000000 0.100000
vn 0.000000 0.000000 0.100000
vn 0.000000 0.000000 0.100000
vn 0.000000 0.000000 0.100000
vn -0.100000 0.000000 0.000000
vn -0.100000 0.000000 0.000000
vn -0.097493 0.022252 -0.000000
vn -0.097493 0.022252 -0.000000
vn -0.090097 0.043388 -0.000000
vn -0.090097 0.043388 -0.000000
vn -0.078183 0.062349 -0.000000
vn -0.078183 0.062349 -0.000000
vn -0.062349 0.078183 -0.000000
vn -0.062349 0.078183 -0.000000
vn -0.043388 0.090097 -0.000000
vn -0.043388 0.090097 -0.000000
vn -0.022252 0.097493 -0.000000
vn -0.022252 0.097493 -0.000000
vn -0.000000 0.100000 -0.000000
vn -0.000000 0.100000 -0.000000
vn -0.100000 0.000000 0.000000
vn -0.100000 0.000000 0.000000
vn -0.022252 -0.097493 0.000000
vn -0.022252 -0.097493 0.000000
vn -0.043388 -0.090097 0.000000
vn -0.043388 -0.090097 0.000000
vn -0.062349 -0.078183 0.000000
vn -0.062349 -0.078183 0.000000
vn -0.078183 -0.062349 0.000000
vn -0.078183 -0.062349 0.000000
vn -0.090097 -0.043388 0.000000
vn -0.090097 -0.043388 0.000000
vn -0.097493 -0.022252 0.000000
vn -0.097493 -0.022252 0.000000
vn 0.100000 0.000000 0.000000
vn 0.100000 0.000000 0.000000
vn 0.100000 0.000000 0.000000
vn 0.100000 0.000000 0.000000
vn 0.000000 0.100000 0.000000
vn 0.000000 0.100000 0.000000
vn 0.000000 0.100000 0.000000
vn 0.000000 0.100000 0.000000
vn -0.100000 0.000000 0.000000
vn -0.100000 0.000000 0.000000
vn -0.100000 0.000000 0.000000
vn -0.100000 0.000000 0.000000
vn 0.000000 -0.100000 0.000000
vn 0.000000 -0.100000 0.000000
vn 0.000000 -0.100000 0.000000
vn 0.000000 -0.100000 0.000000
vn -0.000000 0.000000 -0.100000
vn -0.000000 0.000000 -0.100000
vn -0.000000 0.000000 -0.100000
vn -0.000000 0.000000 -0.100000
vn -0.000000 0.000000 -0.100000
vn -0.000000 0.000000 -0.100000
vn -0.000000 0.000000 -0.100000
vn -0.000000 0.000000 -0.100000
vn -0.000000 0.000000 -0.100000
vn -0.000000 0.000000 -0.100000
vn -0.000000 0.000000 -0.100000
vn -0.000000 0.000000 -0.100000
vn -0.000000 0.000000 -0.100000
vn -0.000000 0.000000 -0.100000
vn -0.000000 0.000000 -0.100000
vn -0.000000 0.000000 -0.100000
vn -0.000000 0.000000 -0.100000
vn -0.000000 0.000000 -0.100000
vn -0.000000 0.000000 -0.100000
vn -0.000000 0.000000 -0.100000
vn -0.000000 0.000000 -0.100000
vn -0.000000 0.000000 -0.100000
vn -0.000000 0.000000 -0.100000
vn -0.000000 0.000000 -0.100000
vn -0.000000 0.000000 -0.100000
vn -0.000000 0.000000 -0.100000
vn -0.000000 0.000000 -0.100000
vn -0.000000 0.000000 -0.100000
vn -0.000000 0.000000 -0.100000
vn -0.000000 0.000000 -0.100000
vn -0.000000 0.000000 -0.100000
vn -0.000000 0.000000 -0.100000
vn -0.000000 0.000000 -0.100000
vn -0.000000 0.000000 -0.100000
vn -0.000000 0.000000 -0.100000
vn -0.000000 0.000000 -0.100000
usemtl Steel_-_Satin
f 2/1/1 3/2/2 1/3/3
f 1/3/3 3/2/2 4/4/4
f 1/5/3 5/6/5 2/7/1
f 2/7/1 5/6/5 17/8/6
f 17/8/6 5/6/5 6/9/7
f 17/8/6 6/9/7 16/10/8
f 16/10/8 6/9/7 7/11/9
f 16/10/8 7/11/9 15/12/10
f 15/12/10 7/11/9 8/13/11
f 15/12/10 8/13/11 14/14/12
f 14/14/12 8/13/11 9/15/13
f 14/14/12 9/15/13 13/16/14
f 13/16/14 9/15/13 10/17/15
f 13/16/14 10/17/15 12/18/16
f 12/18/16 10/17/15 11/19/17
f 18/20/18 19/21/19 11/22/17
f 11/22/17 19/21/19 12/23/16
f 18/24/18 20/25/20 19/26/19
f 19/26/19 20/25/20 32/27/21
f 32/27/21 20/25/20 21/28/22
f 32/27/21 21/28/22 31/29/23
f 31/29/23 21/28/22 22/30/24
f 31/29/23 22/30/24 30/31/25
f 30/31/25 22/30/24 23/32/26
f 30/31/25 23/32/26 29/33/27
f 29/33/27 23/32/26 24/34/28
f 29/33/27 24/34/28 28/35/29
f 28/35/29 24/34/28 25/36/30
f 28/35/29 25/36/30 27/37/31
f 27/37/31 25/36/30 26/38/32
f 34/39/33 27/40/31 33/41/34
f 33/41/34 27/40/31 26/42/32
f 33/43/34 35/44/35 34/45/33
f 34/45/33 35/44/35 47/46/36
f 47/46/36 35/44/35 36/47/37
f 47/46/36 36/47/37 46/48/38
f 46/48/38 36/47/37 37/49/39
f 46/48/38 37/49/39 45/50/40
f 45/50/40 37/49/39 38/51/41
f 45/50/40 38/51/41 44/52/42
f 44/52/42 38/51/41 39/53/43
f 44/52/42 39/53/43 43/54/44
f 43/54/44 39/53/43 40/55/45
f 43/54/44 40/55/45 42/56/46
f 42/56/46 40/55/45 41/57/47
f 48/58/48 49/59/49 41/60/47
f 41/60/47 49/59/49 42/61/46
f 48/62/48 50/63/50 49/64/49
f 49/64/49 50/63/50 60/65/51
f 60/65/51 50/63/50 51/66/52
f 60/65/51 51/66/52 59/67/53
f 59/67/53 51/66/52 52/68/54
f 59/67/53 52/68/54 58/69/55
f 58/69/55 52/68/54 53/70/56
f 58/69/55 53/70/56 57/71/57
f 57/71/57 53/70/56 54/72/58
f 57/71/57 54/72/58 56/73/59
f 56/73/59 54/72/58 55/74/60
f 56/73/59 55/74/60 3/75/2
f 3/75/2 55/74/60 4/76/4
f 68/77/61 26/78/62 67/79/63
f 67/79/63 26/78/62 25/80/64
f 67/79/63 25/80/64 66/81/65
f 66/81/65 25/80/64 24/82/66
f 66/81/65 24/82/66 65/83/67
f 65/83/67 24/82/66 23/84/68
f 65/83/67 23/84/68 64/85/69
f 64/85/69 23/84/68 22/86/70
f 64/85/69 22/86/70 63/87/71
f 63/87/71 22/86/70 21/88/72
f 63/87/71 21/88/72 62/89/73
f 62/89/73 21/88/72 20/90/74
f 62/89/73 20/90/74 61/91/75
f 61/91/75 20/90/74 18/92/76
f 18/93/76 11/94/77 61/95/75
f 61/95/75 11/94/77 69/96/78
f 69/97/78 11/98/77 76/99/79
f 76/99/79 11/98/77 10/100/80
f 76/99/79 10/100/80 75/101/81
f 75/101/81 10/100/80 9/102/82
f 75/101/81 9/102/82 74/103/83
f 74/103/83 9/102/82 8/104/84
f 74/103/83 8/104/84 73/105/85
f 73/105/85 8/104/84 7/106/86
f 73/105/85 7/106/86 72/107/87
f 72/107/87 7/106/86 6/108/88
f 72/107/87 6/108/88 71/109/89
f 71/109/89 6/108/88 5/110/90
f 71/109/89 5/110/90 70/111/91
f 70/111/91 5/110/90 1/112/92
f 1/113/92 4/114/93 70/115/91
f 70/115/91 4/114/93 77/116/94
f 79/117/95 34/118/96 78/119/97
f 78/119/97 34/118/96 47/120/98
f 78/119/97 47/120/98 46/121/99
f 80/122/100 12/123/101 79/117/95
f 79/117/95 12/123/101 19/124/102
f 79/117/95 19/124/102 32/125/103
f 81/126/104 2/127/105 80/122/100
f 80/122/100 2/127/105 17/128/106
f 80/122/100 17/128/106 16/129/107
f 78/119/97 42/130/108 81/126/104
f 81/126/104 42/130/108 49/131/109
f 81/126/104 49/131/109 60/132/110
f 56/133/111 3/134/112 81/126/104
f 81/126/104 3/134/112 2/127/105
f 16/129/107 15/135/113 80/122/100
f 80/122/100 15/135/113 14/136/114
f 80/122/100 14/136/114 13/137/115
f 13/137/115 12/123/101 80/122/100
f 32/125/103 31/138/116 79/117/95
f 79/117/95 31/138/116 30/139/117
f 79/117/95 30/139/117 29/140/118
f 29/140/118 28/141/119 79/117/95
f 79/117/95 28/141/119 27/142/120
f 79/117/95 27/142/120 34/118/96
f 46/121/99 45/143/121 78/119/97
f 78/119/97 45/143/121 44/144/122
f 78/119/97 44/144/122 43/145/123
f 43/145/123 42/130/108 78/119/97
f 60/132/110 59/146/124 81/126/104
f 81/126/104 59/146/124 58/147/125
f 81/126/104 58/147/125 57/148/126
f 57/148/126 56/133/111 81/126/104
f 89/149/127 41/150/128 88/151/129
f 88/151/129 41/150/128 40/152/130
f 88/151/129 40/152/130 87/153/131
f 87/153/131 40/152/130 39/154/132
f 87/153/131 39/154/132 86/155/133
f 86/155/133 39/154/132 38/156/134
f 86/155/133 38/156/134 85/157/135
f 85/157/135 38/156/134 37/158/136
f 85/157/135 37/158/136 84/159/137
f 84/159/137 37/158/136 36/160/138
f 84/159/137 36/160/138 83/161/139
f 83/161/139 36/160/138 35/162/140
f 83/161/139 35/162/140 82/163/141
f 82/163/141 35/162/140 33/164/142
f 48/165/143 41/166/128 90/167/144
f 90/167/144 41/166/128 89/168/127
f 77/169/94 4/170/93 96/171/145
f 96/171/145 4/170/93 55/172/146
f 96/171/145 55/172/146 95/173/147
f 95/173/147 55/172/146 54/174/148
f 95/173/147 54/174/148 94/175/149
f 94/175/149 54/174/148 53/176/150
f 94/175/149 53/176/150 93/177/151
f 93/177/151 53/176/150 52/178/152
f 93/177/151 52/178/152 92/179/153
f 92/179/153 52/178/152 51/180/154
f 92/179/153 51/180/154 91/181/155
f 91/181/155 51/180/154 50/182/156
f 91/181/155 50/182/156 90/183/144
f 90/183/144 50/182/156 48/184/143
f 33/185/142 26/186/62 82/187/141
f 82/187/141 26/186/62 68/188/61
f 97/189/157 98/190/158 81/191/159
f 81/191/159 98/190/158 78/192/160
f 99/193/161 97/194/162 80/195/163
f 80/195/163 97/194/162 81/196/164
f 100/197/165 99/198/166 79/199/167
f 79/199/167 99/198/166 80/200/168
f 98/201/169 100/202/170 78/203/171
f 78/203/171 100/202/170 79/204/172
f 61/205/173 69/206/174 99/207/175
f 99/207/175 69/206/174 76/208/176
f 99/207/175 76/208/176 75/209/177
f 75/209/177 74/210/178 99/207/175
f 99/207/175 74/210/178 73/211/179
f 99/207/175 73/211/179 72/212/180
f 72/212/180 71/213/181 99/207/175
f 99/207/175 71/213/181 70/214/182
f 99/207/175 70/214/182 77/215/183
f 99/207/175 77/215/183 97/216/184
f 97/216/184 77/215/183 96/217/185
f 97/216/184 96/217/185 95/218/186
f 95/218/186 94/219/187 97/216/184
f 97/216/184 94/219/187 93/220/188
f 97/216/184 93/220/188 92/221/189
f 92/221/189 91/222/190 97/216/184
f 97/216/184 91/222/190 90/223/191
f 97/216/184 90/223/191 98/224/192
f 98/224/192 90/223/191 89/225/193
f 98/224/192 89/225/193 88/226/194
f 88/226/194 87/227/195 98/224/192
f 98/224/192 87/227/195 86/228/196
f 98/224/192 86/228/196 85/229/197
f 85/229/197 84/230/198 98/224/192
f 98/224/192 84/230/198 83/231/199
f 98/224/192 83/231/199 82/232/200
f 82/232/200 68/233/201 98/224/192
f 98/224/192 68/233/201 100/234/202
f 100/234/202 68/233/201 67/235/203
f 100/234/202 67/235/203 66/236/204
f 66/236/204 65/237/205 100/234/202
f 100/234/202 65/237/205 64/238/206
f 100/234/202 64/238/206 63/239/207
f 63/239/207 62/240/208 100/234/202
f 100/234/202 62/240/208 61/205/173
f 100/234/202 61/205/173 99/207/175
# 100 vertices
# 240 texture params
# 208 normals
# 200 facets

# 1 groups
