# Exported from 3D Builder
mtllib cover.mtl

o Object.1
v 13.737734 -23.996565 1.480359
v 13.737734 -23.996567 1.776430
v 13.767340 -23.996567 2.161323
v 13.737734 -23.996565 1.421145
v 13.737734 -23.996565 1.302716
v 29.932863 -23.996561 0.000002
v 29.163076 -23.996561 0.000002
v 33.752190 -23.996567 2.161323
v 27.238605 -23.996567 2.161323
v 27.268211 -23.996567 2.161323
v 31.087545 -23.996561 0.000002
v 23.626532 -23.996567 2.161323
v 23.656139 -23.996567 2.161323
v 24.277891 -23.996561 0.000002
v 17.231386 -23.996567 2.161323
v 17.793919 -23.996567 2.161323
v 19.392706 -23.996561 0.000002
v 21.524426 -23.996567 2.161323
v 21.583639 -23.996567 2.161323
v 25.047678 -23.996561 0.000002
v 14.507521 -23.996561 0.000002
v 13.737734 -23.996565 1.213895
v 15.277308 -23.996561 0.000002
v 17.172165 -23.996567 2.161323
v 23.063993 -23.996567 2.161323
v 7.076118 -23.996567 2.161323
v 7.283367 -23.996567 2.161323
v 4.233826 -23.996561 0.000002
v 0.769787 -23.996567 2.161323
v 1.332325 -23.996567 2.161323
v -0.651356 -23.996561 0.000002
v 13.737734 -23.996561 0.000002
v 13.737734 -23.996563 0.207252
v 13.737734 -23.996565 1.184288
v 9.622335 -23.996561 0.000002
v 9.119015 -23.996561 0.000002
v 10.392122 -23.996561 0.000002
v 12.997557 -23.996561 0.000002
v 20.162493 -23.996561 0.000002
v 18.060387 -23.996567 2.161323
v 27.860363 -23.996567 2.161323
v 33.752190 -23.996561 0.000002
v 13.234409 -23.996561 0.000002
v 4.825974 -23.996567 2.161323
v -2.990324 -23.996567 2.161323
v -2.723859 -23.996567 2.161323
v -5.536541 -23.996561 0.000002
v -9.681546 -23.996567 2.161323
v -9.148618 -23.996567 2.161323
v -10.421726 -23.996561 0.000002
v -5.921435 -23.996567 2.161323
v -6.306328 -23.996561 0.000002
v -3.552863 -23.996567 2.161323
v -9.148618 -23.996561 0.000002
v -13.412050 -23.996567 2.161323
v -12.908731 -23.996567 2.161323
v -15.306911 -23.996561 0.000002
v -16.994520 -23.996567 2.161323
v -16.639233 -23.996567 2.161323
v -20.192097 -23.996561 0.000002
v -20.547380 -23.996567 2.161323
v -20.961882 -23.996561 0.000002
v -20.991489 -23.996567 2.161323
v -26.616854 -23.996567 2.161323
v -24.011423 -23.996567 2.161323
v -25.077280 -23.996561 0.000002
v -16.076698 -23.996561 0.000002
v -25.847069 -23.996561 0.000002
v -29.962465 -23.996561 0.000002
v -27.238604 -23.996567 2.161323
v -31.117144 -23.996561 0.000002
v -33.781792 -23.996567 2.161323
v -33.781792 -23.996561 0.000002
v -23.596922 -23.996567 2.161323
v -11.191513 -23.996561 0.000002
v -13.767338 -23.996561 0.000002
v -13.264015 -23.996561 0.000002
v 13.737734 -23.996567 2.161323
v 5.388509 -23.996567 2.161323
v 5.447721 -23.996567 2.161323
v -1.421143 -23.996561 0.000002
v -5.033220 -23.996561 0.000002
v -4.263433 -23.996561 0.000002
v 3.464041 -23.996561 0.000002
v -0.148035 -23.996561 0.000002
v 0.621752 -23.996561 0.000002
v 8.349226 -23.996561 0.000002
v 4.737150 -23.996561 0.000002
v 5.506938 -23.996561 0.000002
v -0.651356 -26.986883 2.161315
v -0.059214 -26.986883 2.161315
v 0.621752 -26.986883 2.161315
v 3.552866 -26.986883 2.161315
v -9.148618 26.986889 2.161469
v -4.855575 23.996569 2.161461
v -1.361926 23.996569 2.161461
v -3.582467 26.986889 2.161469
v 3.523256 23.996569 2.161461
v 5.891834 23.996569 2.161461
v 0.621752 26.986889 2.161469
v 9.119015 23.996569 2.161461
v 29.251896 -26.986883 2.161315
v 1.302716 26.986889 2.161469
v 9.651941 23.996569 2.161461
v 20.162493 -26.986883 2.161315
v 15.277308 26.986889 2.161469
v 20.961887 23.996569 2.161461
v 23.567318 23.996569 2.161461
v 15.958275 26.986889 2.161469
v 23.981821 23.996569 2.161461
v 20.162493 26.986889 2.161469
v 26.587246 23.996569 2.161461
v 27.209003 23.996569 2.161461
v 33.752190 -19.289032 2.161337
v 33.752190 -23.285994 2.161325
v 37.008972 -24.766346 2.161321
v 37.008972 24.085392 2.161461
v 20.843458 26.986889 2.161469
v 33.752190 -23.582066 2.161325
v 34.818047 -26.986883 2.161315
v 37.008972 24.795961 2.161463
v 34.818047 26.986889 2.161469
v 30.613829 26.986889 2.161469
v 33.752190 -23.522852 2.161325
v 33.752190 23.996569 2.161461
v 34.137081 -26.986883 2.161315
v 29.932863 -26.986883 2.161315
v 25.047678 -26.986883 2.161315
v 5.506938 26.986889 2.161469
v 12.879126 23.996569 2.161461
v 24.366718 -26.986883 2.161315
v 11.073088 26.986889 2.161469
v 20.517776 23.996569 2.161461
v 13.737734 -24.263031 2.161323
v 19.481527 -26.986883 2.161315
v 10.392122 26.986889 2.161469
v 13.382446 23.996569 2.161461
v 16.609632 23.996569 2.161461
v 15.277308 -26.986883 2.161315
v 16.964914 23.996569 2.161461
v 13.737734 -24.825567 2.161321
v 13.737734 -26.157885 2.161317
v 13.737734 -26.453951 2.161316
v 13.737734 -26.513166 2.161316
v 14.596342 -26.986883 2.161315
v 13.737734 -26.898062 2.161315
v 13.737734 -26.986883 2.161315
v 13.737734 -26.868456 2.161315
v 13.737734 -26.661200 2.161316
v 4.233826 -26.986883 2.161315
v 13.323233 -26.986883 2.161315
v 13.737734 -26.631599 2.161316
v 37.008972 -20.502924 2.161333
v 33.752190 -19.229816 2.161337
v 33.752190 -19.259426 2.161337
v 33.752190 -18.963352 2.161338
v 33.752190 -14.018969 2.161352
v 33.752190 -14.255820 2.161351
v 37.008972 -15.558536 2.161347
v 37.008972 -19.821962 2.161335
v 33.752190 -14.315037 2.161351
v 33.752190 -18.311996 2.161340
v 33.752190 -9.044971 2.161366
v 33.752190 -9.311435 2.161365
v 37.008972 -10.614146 2.161361
v 37.008972 -14.877572 2.161349
v 33.752190 -4.367044 2.161379
v 33.752190 -4.396654 2.161379
v 37.008972 -5.640150 2.161376
v 37.008972 -9.903576 2.161364
v 33.752190 -9.370648 2.161365
v 33.752190 -13.367607 2.161354
v 33.752190 -9.341041 2.161365
v 33.752190 -8.393616 2.161368
v 33.752190 -4.100582 2.161380
v 33.752190 0.873412 2.161394
v 33.752190 0.606950 2.161394
v 37.008972 -0.695765 2.161390
v 37.008972 -4.959188 2.161378
v 33.752190 0.547734 2.161393
v 33.752190 10.466119 2.161422
v 33.752190 10.377296 2.161422
v 37.008972 9.222620 2.161418
v 37.008972 0.014806 2.161392
v 33.752190 5.492124 2.161408
v 33.752190 1.495160 2.161396
v 33.752190 5.699373 2.161408
v 33.752190 5.521729 2.161408
v 37.008972 4.278232 2.161404
v 33.752190 10.614154 2.161422
v 33.752190 10.495726 2.161422
v 37.008972 4.959196 2.161406
v 33.752190 10.347690 2.161422
v 33.752190 6.350729 2.161410
v 33.752190 15.203257 2.161435
v 33.752190 11.265511 2.161424
v 37.008972 9.903583 2.161420
v 33.752190 20.088430 2.161449
v 33.752190 16.357935 2.161439
v 37.008972 14.877580 2.161434
v 33.752190 20.650967 2.161451
v 33.752190 20.354893 2.161450
v 37.008972 19.141005 2.161447
v 33.752190 20.295681 2.161450
v 37.008972 14.167007 2.161433
v 33.752190 20.118038 2.161449
v 33.752190 21.213501 2.161453
v 37.008972 19.821968 2.161449
v 33.752190 15.736186 2.161437
v 33.752190 15.499329 2.161436
v 33.752190 15.351294 2.161436
v 33.752190 15.321686 2.161436
v 33.752190 15.528935 2.161436
v 33.752190 -3.449225 2.161382
v -13.767338 26.898069 2.161469
v -5.477327 23.996569 2.161461
v -5.418113 23.996569 2.161461
v -13.352837 26.986889 2.161469
v -13.767338 26.986889 2.161469
v 6.187903 26.986889 2.161469
v 29.932863 26.986889 2.161469
v 25.728643 26.986889 2.161469
v 25.047678 26.986889 2.161469
v -13.767338 26.868462 2.161469
v -7.105722 23.996569 2.161461
v -10.421726 -26.986883 2.161315
v -12.523836 23.996569 2.161461
v -7.312974 23.996569 2.161461
v -19.511129 26.986889 2.161469
v -13.796944 23.996569 2.161461
v -13.767338 23.996569 2.161461
v -13.234409 23.996569 2.161461
v -9.740760 26.986889 2.161469
v -10.421726 26.986889 2.161469
v -8.467651 26.986889 2.161469
v -0.799391 23.996569 2.161461
v -4.263433 26.986889 2.161469
v 2.694255 23.996569 2.161461
v 2.960717 23.996569 2.161461
v 8.438047 -26.986883 2.161315
v 9.119015 -26.986883 2.161315
v 4.825974 -26.986883 2.161315
v 5.506938 -26.986883 2.161315
v -29.281500 26.986889 2.161469
v -23.656134 23.996569 2.161461
v -23.093599 23.996569 2.161461
v -15.306911 -26.986883 2.161315
v -15.987875 -26.986883 2.161315
v -37.008976 -24.085382 2.161323
v -20.873060 -26.986883 2.161315
v -20.192097 -26.986883 2.161315
v -33.781792 23.582073 2.161459
v -34.847652 26.986889 2.161469
v -37.008976 24.795961 2.161463
v -33.781792 23.996569 2.161461
v -37.008976 -24.766346 2.161321
v -30.643433 -26.986883 2.161315
v -34.847652 -26.986883 2.161315
v -33.781792 23.285997 2.161458
v -33.781792 23.522858 2.161459
v -27.889961 23.996569 2.161461
v -34.166687 26.986889 2.161469
v -27.297817 23.996569 2.161461
v -27.268211 23.996569 2.161461
v -17.823523 23.996569 2.161461
v -24.396315 26.986889 2.161469
v -25.077280 26.986889 2.161469
v -21.554028 23.996569 2.161461
v -18.089985 23.996569 2.161461
v -29.962465 26.986889 2.161469
v -23.685743 23.996569 2.161461
v -17.260984 23.996569 2.161461
v -13.175194 23.996569 2.161461
v -9.829580 -26.986883 2.161315
v -9.148618 -26.986883 2.161315
v -6.217505 -26.986883 2.161315
v -20.192097 26.986889 2.161469
v -17.201771 23.996569 2.161461
v -13.767338 25.240068 2.161464
v -15.306911 26.986889 2.161469
v -13.767338 26.157890 2.161467
v -13.767338 26.483568 2.161468
v -13.767338 26.513176 2.161468
v -13.767338 26.631603 2.161468
v -13.767338 26.661209 2.161468
v -14.625944 26.986889 2.161469
v -21.583630 23.996569 2.161461
v -33.781792 19.289040 2.161447
v -33.781792 18.963360 2.161446
v -33.781792 19.229826 2.161447
v -37.008976 20.532537 2.161451
v -37.008976 15.558542 2.161436
v -37.008976 14.877580 2.161434
v -33.781792 14.018972 2.161432
v -37.008976 19.821968 2.161449
v -33.781792 19.259430 2.161447
v -33.781792 14.285437 2.161433
v -33.781792 14.315043 2.161433
v -33.781792 18.312006 2.161444
v -33.781792 9.044978 2.161418
v -33.781792 9.311441 2.161418
v -37.008976 10.614154 2.161422
v -33.781792 9.370654 2.161419
v -33.781792 13.367617 2.161430
v -37.008976 9.903583 2.161420
v -37.008976 5.640160 2.161408
v -37.008976 4.959196 2.161406
v -33.781792 4.100587 2.161404
v -33.781792 4.367052 2.161404
v -33.781792 4.396661 2.161404
v -33.781792 8.393620 2.161416
v -33.781792 4.426267 2.161405
v -37.008976 0.695768 2.161394
v -37.008976 0.014806 2.161392
v -33.781792 -0.843800 2.161390
v -33.781792 -0.606944 2.161390
v -33.781792 -0.547731 2.161390
v -37.008976 -4.278224 2.161380
v -37.008976 -4.959188 2.161378
v -33.781792 -5.699368 2.161376
v -33.781792 -5.521726 2.161376
v -33.781792 -10.495717 2.161362
v -33.781792 -10.466113 2.161362
v -37.008976 -9.222615 2.161366
v -33.781792 -1.495157 2.161388
v -33.781792 -5.492116 2.161376
v -33.781792 -10.377293 2.161362
v -33.781792 -10.347683 2.161362
v -33.781792 -10.614146 2.161361
v -37.008976 -9.903576 2.161364
v -37.008976 -14.167003 2.161351
v -33.781792 -15.203250 2.161348
v -33.781792 -20.354889 2.161334
v -33.781792 -20.295677 2.161334
v -37.008976 -19.140997 2.161337
v -33.781792 -11.265506 2.161360
v -33.781792 -20.650961 2.161333
v -33.781792 -20.118032 2.161334
v -33.781792 -20.088425 2.161335
v -37.008976 -19.821962 2.161335
v -33.781792 -21.213491 2.161331
v -37.008976 -14.877572 2.161349
v -33.781792 -15.351288 2.161348
v -33.781792 -15.321678 2.161348
v -33.781792 -16.357927 2.161345
v -33.781792 -15.736180 2.161347
v -33.781792 -15.499322 2.161348
v -33.781792 -15.528929 2.161347
v -33.781792 -6.350725 2.161374
v -33.781792 3.449232 2.161402
v -1.332322 -26.986883 2.161315
v -5.536541 -26.986883 2.161315
v -4.944396 -26.986883 2.161315
v -4.263433 -26.986883 2.161315
v -11.102690 -26.986883 2.161315
v -13.767338 -26.986883 2.161315
v -29.962465 -26.986883 2.161315
v -25.758245 -26.986883 2.161315
v -25.077280 -26.986883 2.161315
v 9.711157 -26.986883 2.161315
v 10.392122 -26.986883 2.161315
v 13.737734 26.986889 2.161469
v 9.799980 26.986889 2.161469
v 9.119015 26.986889 2.161469
v 4.914792 26.986889 2.161469
v 4.233826 26.986889 2.161469
v 0.029610 26.986889 2.161469
v -0.651356 26.986889 2.161469
v -4.855575 26.986889 2.161469
v -5.536541 26.986889 2.161469
v 29.932863 -24.766340 0.000000
v 34.818047 -24.766340 0.000000
v 20.162493 -24.766340 0.000000
v 25.047678 -24.766340 0.000000
v 15.277308 -24.766340 0.000000
v 10.392122 -24.766340 0.000000
v 5.506938 -24.766340 0.000000
v 0.621752 -24.766340 0.000000
v -4.263433 -24.766340 0.000000
v -9.148618 -24.766340 0.000000
v -13.767338 -24.766340 0.000000
v -25.077280 -24.766340 0.000000
v -20.192097 -24.766340 0.000000
v -15.306911 -24.766340 0.000000
v -34.847652 -24.766340 0.000000
v -29.962465 -24.766340 0.000000
v -13.767338 -25.595348 0.799390
v -13.767338 -24.943985 0.148036
v -13.767338 24.795967 0.000142
v -13.027157 23.996574 0.000140
v -13.264015 23.996574 0.000140
v -13.767338 -24.499878 0.000001
v -12.168549 23.996574 0.000140
v -12.464622 24.115005 0.000140
v 25.047678 24.795967 0.000142
v 25.817465 23.996574 0.000140
v 25.047678 23.996574 0.000140
v 20.932278 23.996574 0.000140
v 15.277308 24.795967 0.000142
v 20.162493 24.795967 0.000142
v 16.047094 23.996574 0.000140
v 20.162493 23.996574 0.000140
v 29.932863 24.795967 0.000142
v 31.087545 23.996574 0.000140
v 29.932863 23.996574 0.000140
v 34.818047 24.795967 0.000142
v 33.752190 23.996574 0.000140
v 33.752190 23.700506 0.000139
v 33.752190 19.821974 0.000128
v 34.818047 19.821974 0.000128
v 33.752190 18.756117 0.000125
v 34.818047 14.877584 0.000114
v 34.818047 9.903587 0.000099
v 33.752190 13.811727 0.000111
v 9.119015 24.795967 0.000142
v 10.392122 23.996574 0.000140
v 9.119015 23.996574 0.000140
v 11.161909 23.996574 0.000140
v 13.234409 23.996574 0.000140
v 34.818047 4.959201 0.000085
v 33.752190 8.837732 0.000096
v 34.818047 0.014812 0.000071
v 33.752190 3.893344 0.000082
v 15.277308 23.996574 0.000140
v 34.818047 -19.821957 0.000014
v 33.752190 -15.943423 0.000026
v 34.818047 -14.877567 0.000029
v 34.818047 -4.959183 0.000057
v 33.752190 -1.080653 0.000068
v 34.818047 -9.903571 0.000043
v 33.752190 -6.025038 0.000054
v 33.752190 -10.969428 0.000040
v 33.752190 -9.903571 0.000043
v 33.752190 -21.361526 0.000010
v 33.752190 -23.700491 0.000003
v 33.752190 -19.821957 0.000014
v 33.752190 -14.877567 0.000029
v 4.233826 24.795967 0.000142
v -12.908731 24.795967 0.000142
v -13.767338 24.499899 0.000141
v -13.767338 23.996574 0.000140
v -5.536541 24.795967 0.000142
v -4.766754 23.996574 0.000140
v -5.536541 23.996574 0.000140
v -0.651356 23.996574 0.000140
v -0.651356 24.795967 0.000142
v 0.621752 23.996574 0.000140
v 0.118431 23.996574 0.000140
v 1.391539 23.996574 0.000140
v 4.233826 23.996574 0.000140
v 33.752190 14.877584 0.000114
v 33.752190 9.903587 0.000099
v 33.752190 4.959201 0.000085
v 33.752190 0.014812 0.000071
v 33.752190 -4.959183 0.000057
v 13.737734 24.499899 0.000141
v 13.737734 23.996574 0.000140
v -15.306911 24.795967 0.000142
v 13.737734 24.795967 0.000142
v -12.671871 24.351862 0.000141
v -10.421726 23.996574 0.000140
v -15.306911 23.996574 0.000140
v -20.192097 24.795967 0.000142
v -25.077280 24.795967 0.000142
v -24.307491 23.996574 0.000140
v -25.077280 23.996574 0.000140
v -33.781792 -23.700491 0.000003
v -34.847652 24.795967 0.000142
v -29.962465 23.996574 0.000140
v -31.117144 23.996574 0.000140
v -34.847652 -14.877567 0.000029
v -33.781792 -18.756098 0.000017
v -34.847652 -19.821957 0.000014
v -34.847652 -9.903571 0.000043
v -33.781792 -13.811709 0.000031
v -14.537123 23.996574 0.000140
v -34.847652 -4.959183 0.000057
v -33.781792 -8.837714 0.000046
v -29.962465 24.795967 0.000142
v -34.847652 0.014812 0.000071
v -33.781792 -3.893329 0.000060
v -33.781792 23.700506 0.000139
v -33.781792 23.996574 0.000140
v -34.847652 4.959201 0.000085
v -33.781792 1.080666 0.000074
v -34.847652 9.903587 0.000099
v -33.781792 6.025057 0.000088
v -34.847652 14.877584 0.000114
v -33.781792 10.969445 0.000103
v -20.192097 23.996574 0.000140
v -34.847652 19.821974 0.000128
v -33.781792 15.943439 0.000117
v -33.781792 19.821974 0.000128
v -33.781792 21.361542 0.000132
v -33.781792 14.877584 0.000114
v -4.263433 23.996574 0.000140
v -3.493646 23.996574 0.000140
v -13.767338 24.529503 0.000141
v -10.421726 24.795967 0.000142
v 5.506938 23.996574 0.000140
v 5.003613 23.996574 0.000140
v 6.276721 23.996574 0.000140
v -9.148618 23.996574 0.000140
v -9.651939 23.996574 0.000140
v -8.378831 23.996574 0.000140
v -19.422308 23.996574 0.000140
v -29.192678 23.996574 0.000140
v -33.781792 9.903587 0.000099
v -33.781792 4.959201 0.000085
v -33.781792 0.014812 0.000071
v -33.781792 -4.959183 0.000057
v -33.781792 -9.903571 0.000043
v -33.781792 -14.877567 0.000029
v -33.781792 -19.821957 0.000014
v -13.767338 23.996572 0.207390
v -13.767338 23.996571 1.184425
v -13.767338 23.996571 1.421282
v -13.767338 23.996571 1.480496
v -13.767338 23.996571 1.302854
v -13.767338 23.996571 1.214032
v -13.767338 23.996569 1.776568
v -10.421726 25.447323 0.651501
v -12.494226 25.891426 1.066002
v -13.678516 26.513178 1.687754
v -13.441658 26.750031 1.924611
v 13.737734 24.944002 0.148178
v 13.737734 25.595360 0.799537
v -13.767338 25.713787 0.917966
v -13.767338 26.217106 1.421289
v -12.553442 25.476931 0.681108

usemtl Green_0
f 1 2 3
f 4 1 3
f 5 4 3
f 6 7 8
f 9 10 7
f 11 6 8
f 12 13 14
f 15 16 17
f 18 19 14
f 7 20 9
f 21 22 5
f 23 21 24
f 25 12 14
f 3 24 21
f 21 5 3
f 24 15 17
f 21 32 33
f 21 33 34
f 21 34 22
f 17 23 24
f 14 39 18
f 19 25 14
f 40 18 17
f 39 17 18
f 16 40 17
f 13 9 14
f 20 14 9
f 10 41 7
f 41 8 7
f 42 11 8
f 78 3 2
f 228 496 225
f 393 228 390
f 461 228 393
f 504 228 461
f 503 228 504
f 96 447 236
f 95 496 96
f 238 500 239
f 236 447 238
f 101 416 104
f 99 502 101
f 502 99 500
f 450 238 449
f 501 238 450
f 500 238 501
f 417 101 502
f 416 101 417
f 130 424 137
f 104 416 130
f 138 402 140
f 137 424 138
f 397 107 398
f 140 402 133
f 110 397 112
f 133 398 107
f 398 133 402
f 402 138 401
f 112 405 113
f 396 112 397
f 405 112 396
f 407 125 404
f 404 125 405
f 113 405 125
f 108 397 110
f 107 397 108
f 401 138 424
f 419 130 418
f 457 130 419
f 424 130 457
f 418 130 416
f 390 228 391
f 391 228 441
f 441 228 515
f 515 228 516
f 517 228 518
f 519 228 517
f 520 228 519
f 516 228 520
f 518 228 521
f 225 496 216
f 216 496 217
f 217 496 95
f 239 500 98
f 98 500 99
f 449 238 447
f 445 96 497
f 448 96 445
f 447 96 448
f 497 96 496
f 444 228 505
f 443 228 444
f 496 228 443
f 505 228 503
f 227 521 228
f 273 521 227
f 232 521 273
f 231 521 232
f 409 202 201
f 198 409 199
f 407 408 207
f 409 207 408
f 451 209 199
f 451 210 213
f 195 451 196
f 452 191 190
f 193 452 194
f 185 453 186
f 454 177 176
f 180 454 214
f 455 167 175
f 168 455 174
f 433 164 163
f 171 433 172
f 437 158 157
f 161 437 162
f 436 154 156
f 114 436 115
f 409 201 207
f 125 407 207
f 409 204 202
f 409 206 204
f 409 198 206
f 451 213 209
f 451 211 210
f 451 212 211
f 452 190 196
f 451 195 212
f 452 181 191
f 452 182 181
f 452 193 182
f 453 185 188
f 453 187 194
f 453 188 187
f 454 176 186
f 454 180 177
f 455 175 214
f 455 168 167
f 433 163 174
f 433 173 164
f 433 171 173
f 437 157 172
f 437 161 158
f 436 156 162
f 436 155 154
f 436 114 155
f 434 435 8
f 42 8 435
f 437 426 162
f 8 119 434
f 124 115 434
f 119 124 434
f 436 434 115
f 433 432 172
f 436 162 426
f 455 431 174
f 437 172 432
f 454 429 214
f 433 174 431
f 453 423 186
f 455 214 429
f 452 421 194
f 454 186 423
f 451 414 196
f 453 194 421
f 409 411 199
f 452 196 414
f 451 199 411

usemtl Green_0
f 26 27 28
f 29 30 31
f 35 36 27
f 37 35 27
f 38 37 27
f 27 34 33
f 27 1 4
f 32 43 27
f 30 44 28
f 45 46 47
f 46 29 31
f 48 49 50
f 49 51 52
f 53 45 47
f 54 50 49
f 52 54 49
f 55 56 57
f 47 52 51
f 56 48 50
f 58 59 60
f 59 55 57
f 61 58 60
f 60 62 61
f 63 61 62
f 64 65 66
f 57 67 59
f 66 68 64
f 68 69 64
f 70 64 69
f 69 71 72
f 72 70 69
f 71 73 72
f 62 66 63
f 65 74 66
f 74 63 66
f 67 60 59
f 50 75 56
f 76 57 56
f 77 76 56
f 75 77 56
f 43 38 27
f 27 4 5
f 27 5 22
f 27 22 34
f 27 33 32
f 27 2 1
f 27 78 2
f 44 79 28
f 80 26 28
f 79 80 28
f 51 53 47
f 31 81 46
f 82 47 46
f 83 82 46
f 81 83 46
f 28 84 30
f 85 31 30
f 86 85 30
f 84 86 30
f 36 87 27
f 88 28 27
f 89 88 27
f 87 89 27
f 345 513 346
f 345 339 514
f 467 514 341
f 341 514 337
f 336 332 513
f 346 513 348
f 349 328 512
f 320 511 321
f 336 512 329
f 325 326 511
f 350 317 510
f 325 510 315
f 311 312 509
f 350 509 308
f 304 303 508
f 311 508 300
f 299 298 495
f 304 495 294
f 259 288 493
f 299 493 289
f 341 73 467
f 73 341 72
f 337 514 333
f 333 514 334
f 334 514 338
f 338 514 339
f 348 513 347
f 347 513 343
f 343 513 344
f 344 513 332
f 329 512 322
f 322 512 323
f 323 512 327
f 327 512 328
f 349 511 320
f 321 511 326
f 315 510 316
f 316 510 317
f 308 509 309
f 309 509 310
f 310 509 312
f 300 508 301
f 301 508 303
f 294 495 297
f 297 495 298
f 289 493 290
f 290 493 296
f 296 493 288
f 255 494 482
f 482 483 255
f 494 255 252
f 259 493 494
f 299 495 492
f 492 493 299
f 304 508 489
f 489 495 304
f 311 509 487
f 487 508 311
f 350 510 485
f 485 509 350
f 325 511 481
f 481 510 325
f 349 512 478
f 478 511 349
f 336 513 475
f 475 512 336
f 345 514 472
f 494 260 259
f 494 252 260
f 472 513 345
f 507 255 469
f 271 465 245
f 469 255 470
f 230 521 231
f 264 465 271
f 263 507 264
f 261 507 263
f 265 506 272
f 245 465 246
f 230 518 521
f 520 476 516
f 519 476 520
f 246 465 287
f 476 278 462
f 516 476 515
f 441 515 476
f 230 476 519
f 230 519 517
f 278 476 230
f 230 517 518
f 462 278 506
f 272 506 278
f 287 465 268
f 490 268 465
f 269 506 265
f 268 506 269
f 506 268 490
f 465 264 466
f 466 264 507
f 255 507 261
f 470 255 483

usemtl BaseColor_0
f 51 90 91
f 51 91 92
f 51 92 93
f 45 93 150
f 147 146 151
f 134 78 27
f 141 134 27
f 142 141 27
f 143 142 27
f 144 143 27
f 152 144 27
f 149 152 27
f 148 149 27
f 226 55 59
f 90 51 49
f 229 230 231
f 229 231 232
f 93 53 51
f 150 29 46
f 30 240 241
f 29 150 242
f 29 242 243
f 29 243 240
f 241 44 30
f 244 245 246
f 247 63 74
f 74 248 247
f 249 250 251
f 248 74 65
f 65 251 248
f 252 253 254
f 252 255 253
f 249 256 257
f 256 258 257
f 259 260 254
f 260 252 254
f 261 262 253
f 262 263 264
f 265 266 267
f 267 268 269
f 270 264 271
f 270 271 245
f 264 270 262
f 266 265 272
f 267 269 265
f 268 267 244
f 229 232 273
f 55 226 274
f 55 274 275
f 55 275 276
f 226 59 58
f 277 278 230
f 266 272 278
f 279 273 227
f 273 279 280
f 279 281 280
f 282 283 286
f 285 224 286
f 215 219 286
f 224 215 286
f 283 284 286
f 284 285 286
f 281 286 280
f 281 282 286
f 244 287 268
f 273 280 229
f 230 229 277
f 278 277 266
f 244 246 287
f 245 244 270
f 288 259 254
f 289 290 291
f 292 293 294
f 291 295 289
f 290 296 291
f 296 288 291
f 294 297 292
f 297 298 292
f 299 289 295
f 300 301 302
f 301 303 302
f 304 294 293
f 302 305 300
f 306 307 308
f 308 309 306
f 309 310 306
f 311 300 305
f 310 312 306
f 313 314 315
f 315 316 313
f 316 317 313
f 318 319 320
f 320 321 318
f 322 323 324
f 325 315 314
f 321 326 318
f 323 327 324
f 327 328 324
f 329 322 324
f 330 331 332
f 333 334 335
f 336 329 330
f 332 336 330
f 337 333 335
f 334 338 335
f 338 339 335
f 340 249 72
f 341 337 340
f 335 340 337
f 72 341 340
f 342 335 339
f 343 344 331
f 339 345 342
f 345 346 342
f 347 343 331
f 344 332 331
f 348 347 331
f 346 348 331
f 331 342 346
f 324 330 329
f 319 324 328
f 328 349 319
f 349 320 319
f 314 318 326
f 326 325 314
f 307 313 317
f 317 350 307
f 350 308 307
f 305 306 312
f 312 311 305
f 293 302 303
f 303 304 293
f 295 292 298
f 298 299 295
f 254 291 288
f 262 261 263
f 253 255 261
f 151 79 44
f 148 27 26
f 351 49 48
f 352 48 56
f 56 276 352
f 276 56 55
f 226 58 61
f 48 352 353
f 48 353 354
f 48 354 351
f 61 355 226
f 355 61 63
f 49 351 90
f 63 247 356
f 63 356 355
f 251 64 70
f 251 65 64
f 70 72 249
f 251 70 249
f 249 357 358
f 249 257 357
f 249 358 359
f 249 359 250
f 44 241 360
f 44 360 361
f 44 361 151
f 146 148 80
f 79 151 146
f 146 80 79
f 148 26 80
f 240 30 29
f 93 45 53
f 150 46 45
f 382 383 250
f 247 248 384
f 383 384 248
f 383 248 251
f 251 250 383
f 385 257 258
f 385 386 257
f 386 382 358
f 386 358 357
f 384 356 247
f 382 250 359
f 359 358 382
f 357 257 386
f 356 384 387
f 387 384 388
f 381 388 384
f 381 384 392
f 415 416 417
f 415 418 416
f 415 419 418
f 417 438 415
f 442 443 444
f 445 442 446
f 446 447 448
f 446 449 447
f 446 450 449
f 446 448 445
f 441 458 440
f 457 419 456
f 460 461 393
f 384 383 67
f 384 67 57
f 382 68 66
f 462 463 458
f 464 465 466
f 386 71 69
f 386 385 71
f 383 382 62
f 71 385 73
f 73 385 467
f 66 62 382
f 468 469 470
f 471 472 473
f 474 475 471
f 458 476 462
f 477 478 474
f 466 479 464
f 480 481 477
f 482 468 483
f 484 485 480
f 486 487 484
f 488 489 486
f 464 490 465
f 491 492 488
f 492 491 493
f 490 464 463
f 468 493 491
f 494 468 482
f 495 488 492
f 489 488 495
f 493 468 494
f 442 496 443
f 442 497 496
f 442 445 497
f 458 441 476
f 460 393 394
f 498 458 389
f 440 458 498
f 439 461 460
f 461 439 499
f 444 499 442
f 450 446 438
f 415 456 419
f 456 415 459
f 438 500 501
f 438 502 500
f 438 417 502
f 438 501 450
f 499 503 504
f 499 505 503
f 499 444 505
f 499 504 461
f 463 506 490
f 463 462 506
f 479 466 507
f 468 470 483
f 469 468 479
f 479 507 469
f 382 386 68
f 487 486 508
f 485 484 509
f 508 486 489
f 509 484 487
f 481 480 510
f 510 480 485
f 478 477 511
f 511 477 481
f 475 474 512
f 512 474 478
f 472 471 513
f 513 471 475
f 514 473 472
f 473 467 385
f 69 68 386
f 467 473 514
f 57 392 384
f 383 62 60
f 60 67 383
f 392 57 76
f 385 256 249
f 340 473 249
f 491 295 291
f 254 468 291
f 491 291 468
f 488 293 292
f 295 491 292
f 488 292 491
f 486 305 302
f 293 488 302
f 486 302 488
f 484 307 306
f 305 486 306
f 484 306 486
f 480 314 313
f 307 484 313
f 480 313 484
f 477 319 318
f 314 480 318
f 477 318 480
f 330 474 331
f 319 477 324
f 474 324 477
f 471 342 331
f 474 330 324
f 342 471 335
f 473 335 471
f 473 340 335
f 471 331 474
f 385 249 473
f 258 256 385
f 459 415 363
f 277 229 463
f 463 464 266
f 479 468 262
f 479 262 270
f 270 244 479
f 458 463 229
f 267 266 464
f 280 286 458
f 463 266 277
f 442 499 233
f 370 369 442
f 458 229 280
f 389 458 286
f 446 442 369
f 368 367 446
f 438 446 367
f 366 365 438
f 415 438 365
f 364 363 415
f 446 97 368
f 446 237 97
f 446 369 237
f 464 479 244
f 464 244 267
f 253 262 468
f 415 220 364
f 415 129 220
f 415 365 129
f 438 103 366
f 438 100 103
f 438 367 100
f 442 235 370
f 442 94 235
f 442 233 94
f 254 253 468
f 522 499 523
f 524 286 525
f 234 525 218
f 525 286 219
f 219 218 525
f 522 525 234
f 522 233 499
f 234 233 522
f 459 363 526
f 526 132 362
f 526 136 132
f 526 363 136
f 526 362 527
f 389 286 528
f 528 286 529
f 286 524 529
f 499 439 530
f 499 530 523

usemtl BaseColor_0
f 94 95 96
f 97 98 99
f 100 99 101
f 102 12 25
f 103 101 104
f 105 24 3
f 106 107 108
f 108 109 106
f 109 108 110
f 110 111 109
f 111 112 113
f 114 115 116
f 117 118 111
f 119 120 116
f 121 122 123
f 119 8 120
f 115 124 116
f 113 125 117
f 120 8 41
f 126 10 9
f 126 41 10
f 124 119 116
f 12 102 127
f 18 128 102
f 102 19 18
f 129 104 130
f 131 16 15
f 16 131 128
f 132 133 107
f 128 40 16
f 128 18 40
f 24 105 131
f 78 134 3
f 135 3 134
f 136 137 138
f 134 139 135
f 136 140 133
f 134 141 139
f 141 142 139
f 143 144 145
f 142 145 139
f 146 147 145
f 148 146 145
f 149 148 145
f 152 149 145
f 142 143 145
f 144 152 145
f 3 135 105
f 131 15 24
f 102 25 19
f 127 9 13
f 9 127 126
f 127 13 12
f 116 153 114
f 154 155 153
f 156 154 153
f 157 158 159
f 153 160 156
f 161 162 160
f 158 161 159
f 163 164 165
f 159 166 157
f 167 168 169
f 165 170 163
f 171 172 166
f 164 173 165
f 168 174 170
f 175 167 169
f 176 177 178
f 169 179 175
f 177 180 178
f 181 182 183
f 178 184 176
f 185 186 184
f 187 188 189
f 190 191 183
f 189 192 187
f 193 194 192
f 182 193 183
f 191 181 183
f 195 196 197
f 198 199 200
f 183 197 190
f 201 202 203
f 202 204 203
f 197 205 195
f 204 206 203
f 125 207 208
f 199 209 200
f 203 208 201
f 208 117 125
f 207 201 208
f 206 198 203
f 200 203 198
f 210 211 205
f 212 195 205
f 211 212 205
f 213 210 205
f 209 213 205
f 205 200 209
f 196 190 197
f 192 183 193
f 194 187 192
f 188 185 189
f 184 189 185
f 180 214 179
f 186 176 184
f 179 178 180
f 214 175 179
f 170 169 168
f 174 163 170
f 173 171 165
f 166 165 171
f 172 157 166
f 160 159 161
f 162 156 160
f 155 114 153
f 41 126 120
f 215 216 217
f 218 217 95
f 217 218 215
f 219 215 218
f 101 103 100
f 130 220 129
f 136 138 140
f 220 130 137
f 133 132 136
f 111 113 117
f 111 110 112
f 117 123 221
f 117 221 222
f 117 222 223
f 117 121 123
f 117 223 118
f 224 225 216
f 215 224 216
f 224 227 228
f 224 228 225
f 95 94 233
f 95 233 234
f 95 234 218
f 96 235 94
f 235 96 236
f 237 236 238
f 239 97 237
f 237 238 239
f 97 239 98
f 281 279 227
f 282 281 227
f 283 282 227
f 284 283 227
f 285 284 227
f 224 285 227
f 107 106 362
f 107 362 132
f 137 136 363
f 137 363 364
f 137 364 220
f 104 129 365
f 104 365 366
f 104 366 103
f 99 100 367
f 99 367 368
f 99 368 97
f 236 237 369
f 236 369 370
f 236 370 235
f 371 372 126
f 371 126 127
f 373 374 131
f 375 373 135
f 374 371 102
f 376 375 145
f 377 376 360
f 378 377 242
f 375 135 139
f 379 378 91
f 376 151 361
f 376 147 151
f 376 145 147
f 380 379 353
f 377 240 243
f 377 241 240
f 377 360 241
f 379 351 354
f 379 90 351
f 379 91 90
f 378 93 92
f 378 150 93
f 378 242 150
f 381 380 274
f 380 276 275
f 380 352 276
f 380 353 352
f 275 274 380
f 354 353 379
f 92 91 378
f 243 242 377
f 361 360 376
f 139 145 375
f 373 131 105
f 105 135 373
f 374 102 128
f 128 131 374
f 127 102 371
f 120 126 372
f 389 390 391
f 393 390 394
f 395 396 397
f 397 398 395
f 399 400 401
f 400 398 402
f 403 404 405
f 6 372 371
f 403 406 404
f 407 406 408
f 409 410 411
f 412 411 410
f 39 374 373
f 413 414 412
f 420 421 413
f 422 423 420
f 399 401 424
f 425 426 427
f 428 429 422
f 20 371 374
f 430 431 428
f 427 432 430
f 375 21 23
f 374 14 20
f 431 430 433
f 434 372 435
f 372 6 11
f 436 372 434
f 432 427 437
f 426 425 436
f 372 436 425
f 435 372 42
f 372 11 42
f 371 20 7
f 375 32 21
f 375 43 32
f 375 38 43
f 375 37 38
f 373 23 17
f 23 373 375
f 377 88 89
f 37 375 376
f 89 376 377
f 376 36 35
f 376 87 36
f 376 89 87
f 376 35 37
f 54 379 380
f 86 377 378
f 83 378 379
f 380 392 77
f 378 85 86
f 389 439 390
f 379 82 83
f 392 380 381
f 440 391 441
f 373 17 39
f 374 39 14
f 371 7 6
f 405 396 403
f 395 403 396
f 451 412 414
f 452 413 421
f 453 420 423
f 454 422 429
f 455 428 431
f 433 430 432
f 437 427 426
f 429 428 455
f 423 422 454
f 421 420 453
f 414 413 452
f 411 412 451
f 408 410 409
f 410 408 406
f 404 406 407
f 400 395 398
f 402 401 400
f 456 424 457
f 424 456 399
f 459 399 456
f 394 390 460
f 460 390 439
f 498 391 440
f 389 391 498
f 380 50 54
f 380 75 50
f 380 77 75
f 76 77 392
f 377 28 88
f 377 84 28
f 377 86 84
f 378 31 85
f 378 81 31
f 378 83 81
f 379 47 82
f 379 52 47
f 379 54 52
f 399 362 106
f 395 400 118
f 106 109 399
f 395 118 223
f 400 109 111
f 400 399 109
f 111 118 400
f 406 123 122
f 403 395 222
f 406 403 123
f 221 123 403
f 403 222 221
f 223 222 395
f 530 439 528
f 439 389 528
f 528 529 524
f 525 528 524
f 530 525 523
f 528 525 530
f 522 523 525
f 362 399 527
f 399 459 526
f 399 526 527
f 372 425 153
f 410 406 117
f 413 205 197
f 410 117 208
f 160 153 425
f 425 427 159
f 425 159 160
f 166 159 427
f 427 430 165
f 427 165 166
f 170 165 430
f 430 428 169
f 430 169 170
f 179 169 428
f 428 422 178
f 428 178 179
f 184 178 422
f 422 420 189
f 208 203 410
f 422 189 184
f 192 189 420
f 420 413 183
f 372 153 116
f 420 183 192
f 412 410 203
f 200 205 412
f 412 203 200
f 413 412 205
f 197 183 413
f 121 117 406
f 122 121 406
f 116 120 372
f 381 274 388
f 388 355 356
f 388 226 355
f 388 274 226
f 356 387 388

